<?xml version="1.0" encoding="UTF-8"?>
<svg id="Camada_1" xmlns="http://www.w3.org/2000/svg" version="1.1" viewBox="0 0 1080 414.72">
  <!-- Generator: Adobe Illustrator 30.0.0, SVG Export Plug-In . SVG Version: 2.1.1 Build 123)  -->
  <defs>
    <style>
      .st0 {
        fill: #fefefe;
      }
    </style>
  </defs>
  <path class="st0" d="M623.91,281.12h-38.02v-83.3c0-.91-.87-4.2-1.26-5.24-2.93-7.79-16.07-4.43-21.59-1.09-1.11.67-7.67,5.74-7.67,6.34v82.55c0,.05-.7.75-.75.75h-37.02c-.05,0-.75-.7-.75-.75v-102.56c0-.15-1.22-2.15-1.5-2.5-2.43-3.09-5.9-2.87-9.51-2.75v-14.01h39.27c1.09,0,5.16,2.06,6.03,2.98.77.81,2.73,4.84,2.73,5.78v7.25c8.3-6.91,16.63-13.85,27.5-16.28,21.91-4.88,42.24,3.24,42.56,28.01l-.02,94.83Z"/>
  <path class="st0" d="M734.97,158.54v25.26c-15.59,21.91-31.43,43.66-46.94,65.63-1.24,1.76-2.86,3.65-3.59,5.66h53.03v25.26c0,.05-.7.75-.75.75h-95.06c-.05,0-.75-.7-.75-.75v-24.51l51.53-72.29h-30.27c-.19,0-3.05,1.31-3.43,1.57-2.56,1.8-2.83,6.02-2.82,8.93h-14.01v-25.77c0-1.41,2.12-5.66,3.26-6.75,1.02-.98,5.25-3.01,6.5-3.01h83.3Z"/>
  <path class="st0" d="M301.22,281.12h-37.77c-.05,0-.75-.7-.75-.75v-143.08c0-2.26-3.59-4.91-5.8-5.21-1.12-.15-5.71.37-5.71-.79v-13.01c0-.05.7-.75.75-.75h39.02c3.01,0,7.3,3.1,8.77,5.74.26.46,1.48,3.33,1.48,3.52v154.34Z"/>
  <path class="st0" d="M197.66,281.12v-142.33c0-.38-1.08-3.06-1.4-3.61-2.14-3.72-6.38-3.19-10.11-3.15v-14.51h39.77c1.64,0,6.11,2.36,7.26,3.74s2.99,6.27,2.99,8.01v151.09c0,.05-.7.75-.75.75h-37.77Z"/>
  <path class="st0" d="M318.23,172.55v-14.01h39.77c1.75,0,5.84,2.55,7.01,3.99,1.06,1.3,2.74,5.23,2.74,6.76v111.07c0,.05-.7.75-.75.75h-37.02c-.05,0-.75-.7-.75-.75v-102.06c0-.2-1.02-2.36-1.27-2.73-2.24-3.29-6.16-3.18-9.73-3.02Z"/>
  <path class="st0" d="M341.63,115.16c14.17-1.6,29.08,4.02,26.4,20.9-2.1,13.29-18.46,15.68-29.4,13.34-20.59-4.4-19.06-31.76,3-34.24Z"/>
  <path class="st0" d="M913.47,82.15c-84.06,4.14-136.28,81.01-114.32,161.56,31.29,114.76,199.45,119.78,238.51,8.16,30.33-86.68-31.55-174.27-124.19-169.71ZM1019.27,239.97c-28.78,100.51-179.24,95.94-201-7.38-14.14-67.1,27.87-127.82,97.71-130.43,75.74-2.83,123.68,66.63,103.3,137.82Z"/>
  <path class="st0" d="M186.03,279.48l-42.89-150.22c-1.56-6.05-7.89-11.74-14.28-11.74h-63.29v14.51h8.76c.25,0,3.34,1.45,3.73,1.77,2.74,2.2,2.24,7.03,1.69,10.16l-44.97,135.13-.23,2.02h39.52l12.24-39.56,45.82.26,11.74,39.29h42.27l-.12-1.63ZM92.09,214.58l18.51-59.03,15.51,59.03h-34.02Z"/>
  <path class="st0" d="M488.96,260.72c-1.1-21.91,1.01-44.61-.11-66.43-1.62-31.56-15.99-37.94-45.3-37.26-17.82.42-36.4,3.97-51.74,13.34l7.97,23.19c10.28-4.36,21.98-8.78,33.27-9.5,13.46-.86,19.61,1.97,18.79,16.7-26.73,5.93-63.94,6.15-66.56,41.59-2.2,29.66,12.51,44.79,42.52,38.52,9.71-2.03,17.29-6.81,25-12.76.12,4.21.94,9.13,4.98,11.28.88.47,4.5,1.73,5.28,1.73h36.27v-13.51c-5.58.51-9.52-.9-10.38-6.88ZM451.8,245.85c0,1.26-9.24,7.34-10.9,8.11-15.4,7.18-21.33-.38-18.89-15.89,1.93-12.3,20.17-13.23,29.79-15.98v23.76Z"/>
  <path class="st0" d="M937.59,277.61h-36.02v-130.83c0-.24-.92-3.48-1.11-3.89-1.49-3.13-6.93-2.87-9.9-2.86v-14.76c0-.05.7-.75.75-.75h34.02c1.97,0,6.32,1.3,8,2.5,1.81,1.3,4.26,5.08,4.26,7.25v143.33Z"/>
  <path class="st0" d="M989.62,277.61h-36.02v-122.07h26.77c1.03,0,5.37,2.34,6.25,3.26.98,1.02,3.01,5.25,3.01,6.5v112.32Z"/>
  <path class="st0" d="M885.56,155.54v122.07h-36.02v-109.81c0-1.53,1.38-6.36,2.27-7.73,1.16-1.79,5.44-4.53,7.48-4.53h26.27Z"/>
</svg>