<?xml version="1.0" encoding="UTF-8"?>
<svg id="Camada_1" xmlns="http://www.w3.org/2000/svg" version="1.1" viewBox="0 0 1062.72 414.72">
  <!-- Generator: Adobe Illustrator 30.0.0, SVG Export Plug-In . SVG Version: 2.1.1 Build 123)  -->
  <defs>
    <style>
      .st0 {
        fill: #006b2d;
      }

      .st1 {
        fill: #e20613;
      }
    </style>
  </defs>
  <path class="st0" d="M49.68,14.05h127.24c0,42.91-.01,85.84,0,128.75,0,42.91,0,85.84,0,128.75,0,42.92.14,85.86-.17,128.78l-127.07.35V14.05Z"/>
  <path class="st0" d="M481.75,400.3V14.05l158.87-.02c67.77,2.18,140.37,21.43,181.49,79.04,42.57,59.64,42.8,156.84,3.64,218.21-40.05,62.76-114.45,86.29-185.88,89.04l-158.11-.02ZM608.99,294.65c33.36.87,72.48.18,96.76-26.12,26.64-28.85,27.4-91.03,1.69-120.6-24.39-28.05-63.87-28.99-98.45-28.22v174.95Z"/>
  <path class="st0" d="M303.77,142.8c0-42.91,0-85.84,0-128.75h127.24v386.06s-.53.57-.57.57h-126.1c-.31,0-.67-.92-.59-1.31.03-42.61.03-85.22.02-127.82,0-42.91,0-85.84,0-128.75Z"/>
  <rect class="st0" x="886.18" y="14.05" width="126.86" height="386.63"/>
  <path class="st1" d="M303.77,142.8c0,42.91,0,85.84,0,128.75h-126.86c0-42.91,0-85.84,0-128.75h126.86Z"/>
</svg>