<?xml version="1.0" encoding="UTF-8"?>
<svg id="Camada_1" xmlns="http://www.w3.org/2000/svg" version="1.1" viewBox="0 0 406.08 414.72">
  <!-- Generator: Adobe Illustrator 30.0.0, SVG Export Plug-In . SVG Version: 2.1.1 Build 123)  -->
  <defs>
    <style>
      .st0 {
        fill: #fff;
      }
    </style>
  </defs>
  <path class="st0" d="M13.78,238.11c4.15-18.37,16.41-34.5,34.91-40.13,11.9-3.62,39.88-3.22,51.58,1.33,4.55,1.77,8.64,4.61,12.59,7.39-9.12,10.31-17.11,20.87-22.53,33.65-10.63,25.04-9.39,49.37-9.23,75.72.06,10.44-.02,20.91-.13,31.35-1.23.64-2.56.78-3.93.88-11.26.82-28.68.73-39.99,0-12.09-.78-18.8-5.81-23.25-17.04v-93.15Z"/>
  <path class="st0" d="M392.3,238.85v92.41c-5.3,11.02-11.48,16.23-23.99,17.04-11.1.72-28.21.8-39.25,0-1.37-.1-2.7-.24-3.93-.88-.22-12.41-.06-24.84-.13-37.26-.2-32.3.52-59.09-18.59-87.07-1.74-2.54-12.45-14.66-12.46-15.66-.01-5.11,20.42-10.96,24.89-11.37,27.52-2.53,54.17.25,68.2,26.98l5.27,15.8Z"/>
  <path class="st0" d="M190.32,195.45c36.87-2.52,68.69,3.3,92.54,33.44,28.66,36.2,18.23,76.68,19.89,119.65-2.92,20.2-17.47,22.51-34.99,23.41-45.13,2.32-92.23-1.82-137.57,0-12.44-.91-22.05-7.04-26-19.1-1.06-25.52-3.34-52.58-.12-78.05,5.81-45.98,40.43-76.21,86.25-79.35Z"/>
  <path class="st0" d="M194.76,42.41c46.8-4.76,83.13,36.77,69.84,82.41-14.25,48.92-78.43,61.71-111.07,22.7-31.94-38.19-8.69-100.04,41.23-105.11Z"/>
  <path class="st0" d="M66.09,89.7c59.43-8.06,62.94,80.78,7.17,81.16-50.5.34-54.72-74.71-7.17-81.16Z"/>
  <path class="st0" d="M326.32,89.7c59.43-8.06,62.94,80.78,7.17,81.16-50.5.34-54.72-74.71-7.17-81.16Z"/>
</svg>