<?xml version="1.0" encoding="UTF-8"?>
<svg id="Camada_1" xmlns="http://www.w3.org/2000/svg" version="1.1" viewBox="0 0 406.08 414.72">
  <!-- Generator: Adobe Illustrator 30.0.0, SVG Export Plug-In . SVG Version: 2.1.1 Build 123)  -->
  <defs>
    <style>
      .st0 {
        fill: #fff;
      }
    </style>
  </defs>
  <path class="st0" d="M199.02,14.31c5.72-.83,10.34.48,15.65,2.29,44.46,15.12,83,56.23,128.5,65.19,9.82,1.93,18.17-.27,22.65,11.66,2.35,6.26.29,25.47-.38,33.15-9.08,104.92-47.53,203.06-138.38,261.96-5.42,3.51-17.78,11.99-23.73,12.1-6.74.12-21.9-10.45-28-14.54C87.13,326.81,49.69,230.53,40.61,127.36c-.71-8.05-2.79-27.94-.15-34.45,4.62-11.39,12.76-9.23,22.42-11.14,35.24-6.97,64.9-33.02,95.91-49.74,9.02-4.86,30.94-16.37,40.23-17.72ZM260.78,121.06c-2.31.47-4.8,2.62-6.21,4.47l-63.44,92.93c-.91.19-1.28-.65-1.84-1.09-11.86-9.14-23.2-26.36-35.04-35.12-4.85-3.59-8.84-3.33-13.68.09-2.62,1.85-14.48,13.87-15.62,16.41-1.7,3.8-1.32,7.52,1.05,10.99l57.94,57.97c7.7,6.01,16.53,6.59,22.88-1.56l80.98-119.57c1.65-3.59,1.9-5.84.02-9.44-1.51-2.89-16.67-13.54-20.06-15.02-2.48-1.08-4.21-1.61-6.99-1.05Z"/>
</svg>