<?xml version="1.0" encoding="UTF-8"?>
<svg id="Camada_1" xmlns="http://www.w3.org/2000/svg" version="1.1" viewBox="0 0 1080 414.72">
  <!-- Generator: Adobe Illustrator 30.0.0, SVG Export Plug-In . SVG Version: 2.1.1 Build 123)  -->
  <defs>
    <style>
      .st0 {
        fill: #1ac31a;
      }

      .st1 {
        fill: #fff;
      }
    </style>
  </defs>
  <g>
    <path class="st1" d="M492.24,352.56c2.84,1.74,7.09,3.59,11.8,3.59,8.29,0,12.23-4.49,12.23-9.92,0-5.81-3.5-8.86-11.03-11.89-8.64-3.3-13.32-8-13.32-14.31,0-7.55,6.01-14.19,16.15-14.19,4.78,0,8.93,1.42,11.57,3.28l-1.94,4.25c-1.88-1.29-5.26-3.17-10.49-3.17-6.67,0-10.15,4.27-10.15,9.07,0,5.45,3.7,7.87,10.81,10.79,8.5,3.3,13.53,7.55,13.53,15.51,0,8.98-7,14.97-17.69,14.97-5.02,0-9.82-1.41-13.31-3.6l1.84-4.36Z"/>
    <path class="st1" d="M545.19,332.69c0,16.71,9.07,23.36,20.01,23.36,7.62,0,11.54-1.52,14.51-2.94l1.3,4.05c-1.97,1.08-7.31,3.37-16.49,3.37-15.06,0-24.44-10.92-24.44-26.29,0-17.48,10.05-28.4,23.59-28.4,17.11,0,20.42,16.14,20.42,23.67,0,1.45,0,2.22-.23,3.19h-38.66ZM578.61,328.55c.11-7.32-2.94-18.36-15.6-18.36-11.6,0-16.62,10.27-17.59,18.36h33.19Z"/>
    <path class="st1" d="M648.51,351.82c0,13.4-2.87,20.07-7.2,24.21-4.83,4.59-11.91,6.22-17.83,6.22s-12.64-1.54-16.71-4.57l1.87-4.14c3.69,2.38,8.84,4.34,15.65,4.34,10.96,0,18.96-5.67,18.96-21.19v-7.42h-.22c-2.72,5.34-8.85,10.16-18.23,10.16-13.21,0-22.48-11.48-22.48-25.76,0-18.24,12-27.85,23.58-27.85,10.36,0,15.49,5.67,17.68,10.04h.21l.32-8.85h4.83c-.33,3.96-.43,8.08-.43,13.54v31.25ZM643.26,327.21c0-1.96-.1-3.59-.63-5.11-2.18-6.33-7.68-11.92-16.29-11.92-11.1,0-18.78,9.07-18.78,22.95,0,11.78,6.23,21.93,18.55,21.93,7.1,0,13.54-4.25,16.28-11.78.56-1.77.87-3.73.87-5.59v-10.5Z"/>
    <path class="st1" d="M715.78,346.65c0,4.6.09,8.75.45,12.78h-4.93l-.34-9.39h-.2c-2.64,4.93-8.65,10.58-17.91,10.58-6.67,0-17.92-3.39-17.92-23.15v-30.46h5.25v29.46c0,11.38,3.47,19.56,13.85,19.56,7.67,0,13.22-5.36,15.51-10.58.54-1.63.99-3.71.99-5.79v-32.65h5.25v39.63Z"/>
    <path class="st1" d="M742.52,322.76c0-5.24-.08-10.6-.45-15.74h4.82l.24,10.61h.33c2.29-6.56,7.71-11.8,14.84-11.8.76,0,1.49.11,2.16.22v5.02c-.72-.22-1.52-.22-2.49-.22-7.21,0-12.36,6.21-13.77,14.63-.34,1.53-.43,3.28-.43,5.02v28.94h-5.25v-36.68Z"/>
    <path class="st1" d="M827.72,332.69c0,19.53-13.44,27.94-25.13,27.94-13.54,0-24.01-10.58-24.01-26.95,0-17.9,11.77-27.85,24.77-27.85,14.52,0,24.37,10.92,24.37,26.86ZM783.81,333.34c0,13.1,8.41,22.95,19.11,22.95s19.53-9.86,19.53-23.29c0-9.61-5.31-22.81-19.22-22.81s-19.42,11.92-19.42,23.15Z"/>
    <path class="st1" d="M848.13,352.56c2.84,1.74,7.09,3.59,11.78,3.59,8.31,0,12.23-4.49,12.23-9.92,0-5.81-3.48-8.86-11.03-11.89-8.61-3.3-13.3-8-13.3-14.31,0-7.55,5.99-14.19,16.16-14.19,4.78,0,8.94,1.42,11.54,3.28l-1.94,4.25c-1.85-1.29-5.22-3.17-10.49-3.17-6.65,0-10.13,4.27-10.13,9.07,0,5.45,3.71,7.87,10.81,10.79,8.5,3.3,13.53,7.55,13.53,15.51,0,8.98-7,14.97-17.7,14.97-5.02,0-9.83-1.41-13.32-3.6l1.85-4.36Z"/>
  </g>
  <path class="st1" d="M204.38,167.88v66.46c0,4.96-1.04,9.38-3.11,13.24-2.07,3.87-4.79,7.13-8.16,9.84-3.36,2.71-7.22,4.82-11.59,6.25-4.38,1.47-8.93,2.2-13.66,2.2s-9.22-.73-13.59-2.2c-4.39-1.43-8.24-3.54-11.61-6.25-3.37-2.7-6.05-5.97-8.08-9.84-2.03-3.86-3.03-8.28-3.03-13.24v-58.36h-8.23l-4.03-8.11h28.44v66c.04,9.5,2.53,14.96,4.34,17.15,1.81,2.14,4.01,3.84,6.62,5.03,2.65,1.26,5.7,1.81,9.16,1.81s6.55-.54,9.2-1.81c2.65-1.19,4.86-2.88,6.7-5.03,3.15-3.68,4.39-11.77,4.42-17.24v-65.91h16.19Z"/>
  <path class="st1" d="M455.59,257.06c-.66-.02-14.6,0-15.3,0h-4.63c-2.85,0-14.81-.23-19.77-2.46-3.32-1.45-6.64-3.67-9.08-6.5-3.98-4.56-3.94-9.79-3.94-23.54,22.97,0,35.9.46,40.21-.25,10.35-1.74,15.97-5.95,19.53-10.04,3.5-4.09,5.2-11.02,5.2-15.39,0-4.87-1.15-9.88-3.37-13.7-2.23-3.77-5.2-7.03-8.96-9.72-3.77-2.65-8.05-4.67-12.83-6.13-4.79-1.45-9.81-2.16-14.99-2.16s-10.22.61-15.08,1.8c-4.87,1.21-9.22,2.96-13.02,5.36-3.83,2.37-6.96,5.37-9.26,9-2.37,3.57-3.52,7.87-3.52,12.71l-.1,38.03c-.13,4.64.55,8.59,2.03,11.93,1.48,3.32,3.43,6.13,5.87,8.48,2.37,2.28,5.15,4.13,8.36,5.59,3.23,1.42,6.5,2.51,9.82,3.28,3.34.79,6.58,1.29,9.79,1.52,3.21.2,6.08.37,8.75.37l20.21-.08,4.07-8.09ZM403.02,199.61c0-3.32.79-7.14,1.9-10.07,1.08-2.88,2.71-5.42,4.88-7.57,2.17-2.12,4.75-3.81,7.78-5.08,3-1.23,6.44-1.69,10.27-1.69,7.64,0,13.48,2.13,17.55,6.71,4.05,4.57,6.11,11.89,6.11,18.68s-4.89,15.02-10.9,15.66c-10.26.77-30.93.14-37.71.28l.11-16.91Z"/>
  <path class="st1" d="M876.99,257.06c-.6-.02-14.6,0-15.3,0h-4.6c-2.87,0-14.8-.23-19.77-2.46-3.32-1.45-6.67-3.67-9.1-6.5-3.95-4.56-3.92-9.79-3.92-23.54,22.97,0,35.93.46,40.2-.25,10.36-1.74,16.03-5.95,19.56-10.04,3.5-4.09,5.2-11.02,5.2-15.39,0-4.87-1.15-9.88-3.35-13.7-2.23-3.77-5.25-7.03-8.99-9.72-3.76-2.65-8.03-4.67-12.84-6.13-4.82-1.45-9.81-2.16-14.98-2.16s-10.22.61-15.08,1.8c-4.89,1.21-9.23,2.96-13.03,5.36-3.82,2.37-6.95,5.37-9.25,9-2.33,3.57-3.5,7.87-3.5,12.71l-.11,38.03c-.14,4.64.54,8.59,2.06,11.93,1.47,3.32,3.44,6.13,5.83,8.48,2.37,2.28,5.18,4.13,8.39,5.59,3.21,1.42,6.49,2.51,9.79,3.28,3.34.79,6.6,1.29,9.79,1.52,3.23.2,6.1.37,8.75.37l20.23-.08,4.04-8.09ZM824.44,199.61c0-3.32.79-7.14,1.9-10.07,1.11-2.88,2.73-5.42,4.89-7.57,2.18-2.12,4.73-3.81,7.8-5.08,3-1.23,6.42-1.69,10.26-1.69,7.62,0,13.5,2.13,17.54,6.71,4.07,4.57,6.13,11.89,6.11,18.68,0,6.74-4.89,15.02-10.9,15.66-10.24.77-30.93.14-37.69.28l.09-16.91Z"/>
  <path class="st1" d="M724.52,257.09v-64.36c-.13-7.46-2.78-13.5-7.33-18.02-4.47-4.5-10.73-6.81-18.19-6.81l-18.83.05c-.96,0-13.65-.07-14.51-.05l-4,8.15h38.52c2.36.15,4.57.99,6.01,2.84,1.39,1.83,2.14,3.75,2.14,5.74v15.69c-7.99,0-15.57-.21-22.9.43-7.37.68-13.38,2.87-19.25,5.37-5.91,2.45-10.7,5.97-14.43,10.43-3.73,4.48-5.68,10.35-5.78,17.58-.11,6.98,1.38,12.49,4.43,16.61,3.11,4.05,6.86,7.19,11.35,9.29,4.43,2.14,9.12,3.53,14.14,4.17,5.01.64,9.32.98,12.98.98h43.86l4.05-8.11h-12.26ZM708.34,257.09h-14.82c-2.86,0-6.12-.25-9.78-.79-3.7-.5-7.42-1.12-10.76-2.76-3.3-1.68-5.88-3.63-8.05-6.91-2.22-3.24-2.89-8.66-2.78-14.12.1-5.42,1.12-8.82,3.78-12.31,2.62-3.5,6.04-6.17,10.32-8.06,4.29-1.91,6.28-2.77,11.81-3.36,5.52-.57,10.96-.36,20.28-.36v48.67Z"/>
  <path class="st1" d="M109.12,225.63c-1.43-2.66-3.21-4.87-5.3-6.59-2.07-1.72-4.38-3.04-6.86-3.99-2.53-.93-4.84-1.72-6.98-2.33-3.46-.94-7.93-2.15-13.41-3.62-5.47-1.48-10.96-3.03-16.46-4.57-4.65-1.3-7.96-2.91-9.83-4.87-1.92-1.97-3.58-4.32-3.85-7.02-.46-5.21,1.74-9.3,5.47-12.34,3.64-3.06,9.23-4.31,16.62-4.31h30.55l-4.03-8.06h-28.31c-5.02,0-9.72.38-14.11,1.17-4.45.79-8.32,2.11-11.58,4.07-3.26,1.94-5.88,4.57-7.89,7.8-1.94,3.28-2.92,7.33-2.92,12.19,0,3.44.53,6.34,1.61,8.75,1.06,2.37,2.41,4.38,4.02,5.94,1.58,1.61,3.39,2.79,5.36,3.68,1.97.83,3.8,1.46,5.46,1.92.71.26,2.54.7,5.53,1.43,3,.73,6.24,1.51,9.65,2.41,3.5.87,6.75,1.76,9.86,2.56,3.12.86,5.13,1.45,6.11,1.79,4.29,1.29,7.98,3.02,11.17,5.25,3.15,2.18,5.61,5.44,5.95,9.72.25,2.94,0,5.79-.63,8.34-.66,2.55-2.53,4.63-4.23,6.47-1.76,1.83-4.02,3.26-6.8,4.32-2.81,1.11-6.42,1.36-10.35,1.36,0,0-34.45-.02-34.64-.02l4.09,8.12h38.84c4.17,0,8.07-.66,11.71-1.96,3.64-1.29,6.83-3.19,9.55-5.65,2.75-2.5,4.92-5.59,6.45-9.25,1.54-3.71,2.33-7.98,2.33-12.84,0-3.89-.71-7.16-2.15-9.83Z"/>
  <path class="st1" d="M303.49,225.6c-1.42-2.66-3.2-4.85-5.29-6.6-2.05-1.72-4.36-3.01-6.87-3.96-2.52-.93-4.82-1.76-6.99-2.33-3.46-.94-7.94-2.17-13.41-3.64s-10.96-3.03-16.46-4.56c-4.66-1.29-7.92-2.93-9.83-4.87-1.91-1.97-3.57-4.32-3.84-7.03-.48-5.19,1.76-9.29,5.46-12.32,3.66-3.06,9.22-4.32,16.63-4.32h30.57l-4.06-8.1h-28.29c-5,0-9.72.39-14.12,1.22-4.42.77-8.3,2.09-11.54,4.03-3.28,1.98-5.9,4.6-7.9,7.82-1.96,3.29-2.93,7.34-2.93,12.21,0,3.43.52,6.33,1.61,8.73,1.07,2.35,2.42,4.37,4.05,5.94,1.57,1.61,3.37,2.78,5.35,3.66,1.95.81,3.77,1.47,5.46,1.92.72.27,2.55.7,5.5,1.43,3.02.7,6.25,1.5,9.67,2.43,3.48.87,6.74,1.73,9.86,2.54,3.11.85,5.14,1.45,6.1,1.79,4.29,1.29,7.99,3.01,11.17,5.26,3.17,2.17,5.61,5.41,5.97,9.69.2,2.95,0,5.84-.66,8.37-.66,2.54-2.51,4.61-4.23,6.44-1.76,1.88-4.01,3.31-6.81,4.34-2.81,1.13-6.41,1.36-10.35,1.36,0,0-34.44-.02-34.62-.02l4.06,8.11h38.85c4.16,0,8.07-.64,11.71-1.96,3.64-1.28,6.83-3.19,9.56-5.66,2.73-2.48,4.89-5.57,6.44-9.25,1.55-3.71,2.33-7.96,2.33-12.82,0-3.89-.72-7.19-2.15-9.86Z"/>
  <path class="st1" d="M625.98,175.14h3.92l3.99-8.05h-28.37v-19.51l-16.25.07v86.91c-.12,4.52.46,8.48,1.72,11.74,1.33,3.27,3.08,6.03,5.29,8.35,2.22,2.26,4.75,4.08,7.57,5.48,2.9,1.41,5.86,2.5,8.96,3.24,3.1.79,6.13,1.29,9.15,1.49,2.91.21,5.54.37,7.83.37v-8.17c-5.8-.3-11.68-1.07-16.11-4.55-2.4-1.9-4.45-4.2-6.04-7.18-1.58-2.98-2.31-6.73-2.19-11.32v-35.02c.08-3.94.94-8.04,2.38-10.71,3.29-6.87,10.12-12.68,18.13-13.13Z"/>
  <path class="st1" d="M562.12,185.49c-2.05-3.88-4.73-7.16-8.09-9.83-3.37-2.73-7.24-4.81-11.62-6.25-4.36-1.47-8.9-2.2-13.59-2.2s-9.29.73-13.63,2.2c-2.43.79-4.73,1.82-6.82,3.02v-4.54h-28.46l4.05,8.1h8.23v89.16l16.19-.02.14-65.85c.02-5.47,1.25-13.53,4.4-17.23,1.83-2.17,4.11-3.85,6.74-5.04,2.62-1.23,5.67-1.81,9.18-1.81s6.51.57,9.13,1.81c2.65,1.2,4.87,2.87,6.66,5.04,1.8,2.19,4.31,7.66,4.33,17.16v65.95h16.12l.07-66.45c0-4.93-.99-9.36-3.01-13.21Z"/>
  <path class="st1" d="M796.05,167.09c-5.15,0-10.83,1.26-13.83,2.31-2.46.81-4.31,1.87-6.45,3.03v-4.52h-28.43l4.04,8.14h8.19v89.13l16.2-.02.17-65.83c0-5.46,1.23-13.53,4.36-17.25,1.87-2.16,4.08-3.84,6.74-5.03,1.49-.7,3.23-.75,5.02-1.05l3.99-8.9Z"/>
  <path class="st1" d="M362.66,175.14h3.94l4-8.05h-28.38v-19.51l-16.25.07v86.91c-.11,4.52.45,8.48,1.72,11.74,1.34,3.27,3.08,6.03,5.29,8.35,2.22,2.26,4.75,4.08,7.6,5.48,2.86,1.41,5.86,2.5,8.97,3.24,3.08.79,6.12,1.29,9.11,1.49,2.95.21,5.54.37,7.87.37v-8.17c-5.8-.3-11.71-1.07-16.13-4.55-2.37-1.9-4.46-4.2-6.03-7.18-1.58-2.98-2.31-6.73-2.2-11.32v-35.02c.1-3.94.93-8.04,2.41-10.71,3.26-6.87,10.11-12.68,18.1-13.13Z"/>
  <g>
    <path class="st0" d="M1049.13,146.97c-12.32-53.99-55.37-96.25-109.78-107.53v103.52c43.85,4.53,81.74,28.91,104.62,64.01,3.8-14.4,5.8-29.49,5.8-45.07,0-5.04-.23-10.02-.63-14.92Z"/>
    <path class="st1" d="M971.03,167.14v98.99c29.25-6.28,54.02-24.6,68.96-49.51-14.94-24.9-39.71-43.21-68.96-49.47Z"/>
  </g>
</svg>