<?xml version="1.0" encoding="UTF-8"?>
<svg id="Camada_1" xmlns="http://www.w3.org/2000/svg" version="1.1" viewBox="0 0 1080 414.72">
  <!-- Generator: Adobe Illustrator 30.0.0, SVG Export Plug-In . SVG Version: 2.1.1 Build 123)  -->
  <defs>
    <style>
      .st0 {
        fill: #00a1fc;
      }
    </style>
  </defs>
  <path class="st0" d="M826.58,98.56v50.27h46.84v34.54h-46.84v75.8c0,1.2,1.07,5.23,1.52,6.54,6.66,19.15,29.6,13.46,45.32,14.38v36.84c-10.46-.39-21.28.51-31.69.02-34.61-1.65-56.42-23.72-56.63-58.53l.02-159.86h41.47Z"/>
  <path class="st0" d="M764.76,148.84v37.23h-36.67c-4.93,0-12.08,4.05-15.16,7.88-1.99,2.47-5,9.22-5,12.27v110.72h-41.08l-.02-115.72c1.4-16.52,8.26-31.69,21.94-41.39,21.91-15.53,50.71-9.87,75.98-10.98Z"/>
  <path class="st0" d="M256.8,108.34c-1.88-14.09-12.5-23.87-26.68-24.76l-177.29.13c-14.19.74-24.99,12.2-26.03,26.18l-.02,180.38c.94,14.05,11.32,25.48,25.53,26.67h179.34c13.37-1.11,23.95-11.82,25.15-25.13V108.34ZM57.52,107.97c-.04-1.24,9.79-.99,10.95-.98,44.33.64,94.55,7.8,128.04,39.35,1.46,1.38,10.95,11.26,10.75,12.28-.4,2.05-4.64-1.99-5.26-2.41-27.21-18.48-64.24-18.58-95.86-14.6-7.75.98-16.45,3.44-23.91,4.12-.67.06-1.35.18-2.01,0-4.54-14.18-10.91-28.18-22.7-37.75ZM197.66,272.99c-1.44,1.26-10.58,9.17-11.43,9.34-1.21.24-1.99-1.07-1.44-2.24.32-.68,4.57-4.74,5.56-5.97,2.88-3.54,8.76-11.46,8.44-16.06-.48-6.78-11.18-6.1-15.92-5.61-13.43,1.4-29.85,7.3-42.63,11.89-23.83,8.56-46.99,18.99-70.05,29.38l-1.93.18c-.67-.66,2.93-5.61,3.52-6.65,9.38-16.57,13.57-35.33,16.14-54.1l.79-.75c22.7-8.73,46.08-16.22,70.09-20.51,17.42-3.11,45.09-6.7,61.5.46,29.49,12.88-10.1,49.65-22.64,60.63ZM232.89,208.53c-.4,2.49-3.36-1.61-3.74-1.94-20.56-18.63-67.15-10.74-92.23-5.44-7.45,1.58-14.92,3.41-22.28,5.36-7.66,2.03-16.23,5.42-23.7,7.01-.65.14-1.27.25-1.94.18.37-16.6-.64-33.13-3.43-49.47,4.75-1.69,9.58-3.27,14.48-4.53,44.68-11.47,115.41-10.17,131.4,43.44.28.92,1.52,4.86,1.44,5.4Z"/>
  <path class="st0" d="M470.91,141.48c-6.15-36.86-37.07-56.95-73.01-57.89l-97.35.02v233.33h44.54v-88.65l55.11.02c48.57-2.29,78.79-38.33,70.7-86.82ZM427.36,167.94c-9.68,33.82-53.42,20.91-79.4,23.52l-2.87-.4v-70.23l51.66-.02c24.93,1.33,37.18,24.17,30.61,47.13Z"/>
  <path class="st0" d="M648.42,223.87c-4.71-50.98-46.41-80.49-96.06-77.22-98.92,6.51-108,150.82-12.21,170.86,61.1,12.79,114.11-30.49,108.28-93.64ZM606.95,240.36c-3.26,30.27-27.05,49.28-57.52,42.53-49.28-10.91-46.37-96.63,6.38-100.94,35.3-2.88,54.69,25.42,51.14,58.41Z"/>
  <path class="st0" d="M964.34,146.65c-55.1,3.55-88.66,54.04-77.22,106.89,18.93,87.49,150.83,88.39,171.1,1.54,14.66-62.8-30.58-112.5-93.89-108.42ZM1017.99,246.33c-5.6,27.49-28.96,42.68-56.58,36.57-49.24-10.9-46.36-96.63,6.38-100.94,37.89-3.09,57.2,29.98,50.2,64.37Z"/>
</svg>