<?xml version="1.0" encoding="UTF-8"?>
<svg id="Camada_1" xmlns="http://www.w3.org/2000/svg" version="1.1" viewBox="0 0 1062.72 414.72">
  <!-- Generator: Adobe Illustrator 30.0.0, SVG Export Plug-In . SVG Version: 2.1.1 Build 123)  -->
  <defs>
    <style>
      .st0 {
        fill: #ffcb06;
      }
    </style>
  </defs>
  <path class="st0" d="M817.55,156.85l6.04-.09c5.76-25.9,20.29-49.94,49.4-51.67,27.39-1.62,47.1,12.1,53.14,38.8.77,3.42.82,8.91,1.79,11.82.4,1.18,1.24,1.18,2.28,1.19,1.08.2.88-.38,1.2-.91,2.61-4.32,4.44-10.95,6.71-15.73,11.86-24.95,25.86-37.45,55.4-35.17,30.65,2.37,46.13,22.99,49.23,52.18,1.63,42.45.37,85.03.77,127.53h-56.49v-109.24c0-19.97-17.7-34.01-36.67-24.42-14.56,7.35-15.9,26.52-16.44,40.73-1.16,30.7.93,62.16.03,92.93h-55.81v-109.24c0-11.4-6.59-24.81-18.88-26.72-23.03-3.58-33.86,16.03-34.24,36.22l.71,99.74h-56.49l-.68-174.92h49v46.96Z"/>
  <path class="st0" d="M236.32,37.06h60.57l-116.04,247.74h-58.87l45.04-95.51c5.13-12.56,8.09-21.72-9.32-23.59l-69.76-.34L15.12,37.06h75.89c14.32,0,24.4,12.61,30.64,23.81,17.79,31.92,33.43,65.2,51.24,97.13,2.54,4.64,7.45,4.89,9.58-.22l53.85-120.72Z"/>
  <path class="st0" d="M323.43,207.89v11.91c0,7.98,8.01,19.88,14.47,24.32,19.04,13.07,43.32,4.89,52.22-15.81h53.09c-1.06,24.58-22.62,45.45-44.75,53.6-56.58,20.84-125.41-2.06-133.48-67.64-8.85-71.86,35.61-115.63,107.1-107.78,48.13,5.28,75.06,40.27,73.17,88.12-.08,1.97-.68,8.91-1.29,10.28-.46,1.03-3.01,2.99-3.81,2.99h-116.72ZM386.73,183.39c.59-18.8-6.27-38.46-27.58-40.15-15.23-1.2-28.17,5.73-33.5,20.24-.52,1.43-2.22,6.22-2.22,7.31v12.59h63.3Z"/>
  <path class="st0" d="M618.82,109.88v106.51c0,12.17,7.41,24.93,19.44,28.2,24.24,6.6,39.7-12.1,39.8-34.98l-.03-99.74h56.49v174.92h-49.68v-46.28l-3.29.11c-9.01,20.51-15.69,41.19-39.59,47.87-42.64,11.92-76.93-15.47-78.94-58.54v-118.08s55.8,0,55.8,0Z"/>
  <rect class="st0" x="473.17" y="37.74" width="55.81" height="246.38"/>
  <path class="st0" d="M789.65,360.01c-.19,2.44-1.14,8.65-2.19,10.74-4.99,9.91-28.15,9.76-27.75-4.27.19-.19,4.86.52,5.29.83.89.65.89,3.65,4.22,4.96,9.65,3.8,16.43-4.49,14.3-13.96-15.56,12.69-28.09-3.43-24.29-19.88,2.86-12.39,16.06-17.24,24.97-7.35v-4.77s5.45,0,5.45,0v33.69ZM772.46,330.54c-11.2,2.16-11.38,27.65,1.76,27.51,14.72-.15,12.53-30.27-1.76-27.51Z"/>
  <path class="st0" d="M938.02,312.7v50.36h-4.77s0-4.76,0-4.76c-7.83,8.7-20.06,5.97-23.94-4.98-5.88-16.56,6.38-36.73,23.27-22.93v-17.7h5.44ZM921.51,330.54c-11.27,2.18-10.83,28.88,2.53,28.47s12.09-31.29-2.53-28.47Z"/>
  <path class="st0" d="M897.86,363.07h-5.45s0-2.72,0-2.72c-1.69.2-2.64,1.5-4.38,2.08-30.47,10.17-30.42-45.63,0-35.47,1.74.58,2.69,1.88,4.38,2.08v-2.73s5.45,0,5.45,0v36.75ZM879.99,330.56c-11.65,1.87-11.92,25.05-1.06,27.96,17.73,4.74,18.18-30.7,1.06-27.96Z"/>
  <path class="st0" d="M1042.15,329.04v-2.73s5.45,0,5.45,0v36.76s-5.45,0-5.45,0v-2.73c-1.69.2-2.64,1.5-4.38,2.08-30.69,10.24-29.83-45.6-.37-35.79,1.81.6,2.92,2.2,4.75,2.39ZM1029.73,330.56c-11.64,1.84-11.93,25.05-1.07,27.96,17.65,4.72,18.34-30.69,1.07-27.96Z"/>
  <path class="st0" d="M750.85,346.05h-25.86c-.89,13.12,15.22,18.59,20.19,5.4.85.24,6.12.08,5.64,1.71-4.5,15.57-30.57,14.2-31.98-6.06-1.98-28.37,34.46-28.32,32.01-1.05ZM745.41,341.29c-1.6-14.69-19.19-14.45-20.42,0h20.42Z"/>
  <path class="st0" d="M963.72,325.81c9.57-1.14,17.06,5.71,17.88,15.12.7,7.98-.53,17.62-8.87,21.12-26.14,10.97-33.41-33.33-9.01-36.24ZM963.71,330.56c-11.65,1.87-11.92,25.05-1.06,27.96,17.73,4.74,18.18-30.7,1.06-27.96Z"/>
  <path class="st0" d="M710.02,335.84l-5.39.64c-.57-10.22-20.88-6.21-14.74,1.46,4.35,5.44,23.24,1.69,21.43,15.88-1.77,13.79-28.36,13.12-28.49-1.61l5.36-.65c.72,13.8,24.84,5.25,15.98-2.03-4.77-3.92-18.92-2.11-20.53-11.47-2.65-15.39,25.47-16.82,26.39-2.22Z"/>
  <path class="st0" d="M805.98,326.32v24.16c0,4.43,3.75,8.39,8.27,8.13,13.82-.78,8.29-23.24,9.43-32.3h5.45v36.76h-5.45s-.34-5.45-.34-5.45c-3.3,7.08-15.74,7.98-20.39,2.02-.62-.79-2.41-5.02-2.41-5.76v-27.56h5.44Z"/>
  <path class="st0" d="M990.43,326.32h4.77s0,5.44,0,5.44c4.52-4.82,7.35-6.37,14.29-5.45v5.45c-4.83-.62-10.39.9-12.28,5.75-.23.6-1.33,4.52-1.33,4.8v20.76h-5.44v-36.75Z"/>
  <path class="st0" d="M840.69,326.32h4.77s0,5.44,0,5.44c4.18-5.08,7.55-6.21,14.29-5.45v5.45c-4.88-.47-9.82.54-12.08,5.28-.26.55-1.54,4.35-1.54,4.59v21.44h-5.44v-36.75Z"/>
</svg>